<?xml version="1.0" encoding="UTF-8" standalone="no"?>
<!DOCTYPE svg PUBLIC "-//W3C//DTD SVG 1.1//EN"
 "http://www.w3.org/Graphics/SVG/1.1/DTD/svg11.dtd">
<!-- Generated by graphviz version 2.28.0 (20140111.2315)
 -->
<!-- Title: g Pages: 1 -->
<svg width="209pt" height="213pt"
 viewBox="0.00 0.00 209.00 212.80" xmlns="http://www.w3.org/2000/svg" xmlns:xlink="http://www.w3.org/1999/xlink">
<g id="graph0" class="graph" transform="scale(1 1) rotate(0) translate(4 208.8)">
<title>g</title>
<polygon fill="white" stroke="none" points="-4,4 -4,-208.8 205,-208.8 205,4 -4,4"/>
<text text-anchor="middle" x="100.5" y="-8.2" font-family="Times,serif" font-size="14.00">GxiMemo components</text>
<!-- c -->
<g id="node1" class="node"><title>c</title>
<polygon fill="none" stroke="black" points="74.9946,-60.8 -0.99462,-60.8 -0.99462,-24.8 74.9946,-24.8 74.9946,-60.8"/>
<text text-anchor="middle" x="37" y="-38.6" font-family="Times,serif" font-size="14.00">Gxi.memo</text>
</g>
<!-- b -->
<g id="node2" class="node"><title>b</title>
<polygon fill="none" stroke="black" points="136.993,-132.8 47.007,-132.8 47.007,-96.8 136.993,-96.8 136.993,-132.8"/>
<text text-anchor="middle" x="92" y="-110.6" font-family="Times,serif" font-size="14.00">GxiMemo.hs</text>
</g>
<!-- c->b -->
<g id="edge1" class="edge"><title>c->b</title>
<path fill="none" stroke="black" d="M44.6798,-61.1034C50.4079,-69.4954 58.257,-79.7295 65.9744,-88.9387"/>
<polygon fill="black" stroke="black" points="63.4838,-91.4098 72.6658,-96.6957 68.7842,-86.8375 63.4838,-91.4098"/>
</g>
<!-- b->c -->
<g id="edge3" class="edge"><title>b->c</title>
<path fill="none" stroke="black" d="M84.4559,-96.6957C78.7615,-88.333 70.9284,-78.1055 63.209,-68.8803"/>
<polygon fill="black" stroke="black" points="65.6891,-66.3966 56.5112,-61.1034 60.385,-70.9647 65.6891,-66.3966"/>
</g>
<!-- a -->
<g id="node3" class="node"><title>a</title>
<polygon fill="none" stroke="black" points="125.422,-204.8 58.5778,-204.8 58.5778,-168.8 125.422,-168.8 125.422,-204.8"/>
<text text-anchor="middle" x="92" y="-182.6" font-family="Times,serif" font-size="14.00">Parser.hs</text>
</g>
<!-- b->a -->
<g id="edge2" class="edge"><title>b->a</title>
<path fill="none" stroke="black" d="M92,-133.103C92,-140.817 92,-150.088 92,-158.688"/>
<polygon fill="black" stroke="black" points="88.5001,-158.696 92,-168.696 95.5001,-158.696 88.5001,-158.696"/>
</g>
<!-- d -->
<g id="node4" class="node"><title>d</title>
<polygon fill="none" stroke="black" stroke-dasharray="5,2" points="201.422,-60.8 92.5778,-60.8 92.5778,-24.8 201.422,-24.8 201.422,-60.8"/>
<text text-anchor="middle" x="147" y="-38.6" font-family="Times,serif" font-size="14.00">other_bnf.memo</text>
</g>
<!-- d->b -->
<g id="edge4" class="edge"><title>d->b</title>
<path fill="none" stroke="black" d="M133.404,-61.1034C126.877,-69.4107 118.932,-79.5229 111.753,-88.6593"/>
<polygon fill="black" stroke="black" points="108.865,-86.6701 105.439,-96.6957 114.369,-90.9949 108.865,-86.6701"/>
</g>
</g>
</svg>
